<?xml version="1.0" encoding="UTF-8"?>
<!DOCTYPE svg PUBLIC "-//W3C//DTD SVG 1.1//EN" "http://www.w3.org/Graphics/SVG/1.1/DTD/svg11.dtd">
<!-- Creator: CorelDRAW 2019 (64-Bit) -->
<svg xmlns="http://www.w3.org/2000/svg" xml:space="preserve" width="130mm" height="33mm" version="1.1" style="shape-rendering:geometricPrecision; text-rendering:geometricPrecision; image-rendering:optimizeQuality; fill-rule:evenodd; clip-rule:evenodd"
viewBox="0 0 13000 3300"
 xmlns:xlink="http://www.w3.org/1999/xlink"
 xmlns:xodm="http://www.corel.com/coreldraw/odm/2003">
 <defs>
  <style type="text/css">
   <![CDATA[
    .str0 {stroke:#2B2A29;stroke-width:75;stroke-miterlimit:22.9256}
    .fil0 {fill:none}
    .fil1 {fill:#2B2A29}
    .fil2 {fill:#2B2A29;fill-rule:nonzero}
   ]]>
  </style>
 </defs>
 <g id="Слой_x0020_1">
  <metadata id="CorelCorpID_0Corel-Layer"/>
  <g id="_1708015620144">
   <rect class="fil0 str0" transform="matrix(0.712952 0.712952 -0.707107 0.707107 1447.77 68.3078)" width="2561.17" height="1894.42"/>
   <polygon class="fil1" points="1936.53,596.94 3036.81,1697.21 3328.66,1405.35 1945.29,19.81 552.2,1412.9 826.53,1692.34 "/>
   <polygon class="fil1" points="1461.5,2704.15 361.22,1603.87 69.37,1895.73 1452.74,3281.27 2845.84,1888.18 2571.5,1608.74 "/>
   <line class="fil0 str0" x1="849.09" y1="1659.78" x2="1694.75" y2= "2505.44" />
   <line class="fil0 str0" x1="1707.17" y1="801.7" x2="2552.83" y2= "1647.36" />
  </g>
  <polygon class="fil2" points="3839.61,806.84 3839.61,2282.58 4752.59,2282.58 4752.59,2465.46 3610.54,2465.46 3610.54,806.84 "/>
  <polygon id="1" class="fil2" points="5158.1,2282.58 6117.36,2282.58 6117.36,2465.46 4929.02,2465.46 4929.02,806.84 6065.34,806.84 6065.34,989.72 5158.1,989.72 5158.1,1525.66 5965.12,1525.66 5965.12,1708.54 5158.1,1708.54 "/>
  <path id="2" class="fil2" d="M6148.24 2465.46l760.25 -1658.62 197.58 0 763.11 1658.62 -247.69 0 -219.53 -497.84 -788.41 0 -220.49 497.84 -244.82 0zm857.61 -1402.08c-84,206.59 -164.18,394.55 -240.06,563.46l-72.06 157.9 625.67 0 -72.06 -158.33c-76.84,-171.87 -155.12,-359.41 -235.77,-563.03l-5.72 0z"/>
  <path id="3" class="fil2" d="M9497.88 1628.53c0,96.94 -13.36,187.96 -40.57,273.05 -26.73,85.09 -67.77,161.71 -122.18,229.87 -54.4,68.16 -122.64,127 -204.25,176.53 -81.14,49.53 -176.59,88.05 -285.4,115.15 -62.51,15.66 -130.29,26.67 -202.82,33.02 -72.55,6.35 -151.29,9.31 -236.24,9.31l-423.32 0 0 -1658.62 427.62 0c84.94,0 163.69,2.96 236.23,9.31 72.54,6.35 140.31,16.94 202.35,33.02 109.29,27.1 204.26,65.2 285.87,113.88 81.61,48.68 149.38,106.26 202.83,172.72 53.45,66.89 93.54,141.39 120.26,224.37 26.26,83.39 39.62,172.72 39.62,268.39zm-226.22 0c0,-159.17 -39.61,-288.29 -118.83,-387.35 -79.22,-99.06 -192.81,-169.33 -340.75,-210.4 -56.8,-16.08 -119.8,-26.67 -189.47,-32.59 -70.15,-5.51 -148.9,-8.47 -236.23,-8.47l-174.2 0 0 1292.86 174.2 0c87.33,0 166.08,-2.96 236.23,-8.47 69.67,-5.92 132.67,-16.93 189.47,-32.59 147.94,-41.07 261.53,-113.46 340.75,-216.33 79.22,-103.29 118.83,-235.37 118.83,-396.66z"/>
  <path id="4" class="fil2" d="M11178.11 1636.15c0,-111.76 -16.7,-209.97 -49.63,-295.06 -32.93,-85.09 -78.27,-156.21 -136.02,-213.36 -58.22,-57.15 -126.47,-100.33 -205.21,-129.54 -78.27,-29.21 -162.75,-44.03 -253.42,-44.03 -90.2,0 -175.14,14.82 -253.42,44.03 -78.74,29.21 -146.99,72.39 -205.21,129.54 -57.75,57.15 -103.08,128.27 -136.01,213.36 -32.93,85.09 -49.64,183.3 -49.64,295.06 0,111.76 16.71,209.55 50.11,294.64 33.41,84.67 79.22,155.36 136.98,212.51 58.21,57.15 126.46,99.91 205.21,128.7 78.27,29.21 163.21,43.6 254.85,43.6 90.19,0 174.67,-14.39 251.98,-43.6 77.79,-28.79 145.56,-71.55 203.78,-128.7 57.75,-57.15 103.09,-127.84 136.02,-212.51 32.93,-85.09 49.63,-182.88 49.63,-294.64zm226.22 0c0,125.73 -20.52,240.88 -61.09,346.29 -40.57,104.98 -98.79,195.58 -174.68,271.35 -75.88,76.2 -167.02,135.47 -273.46,178.23 -106.89,42.75 -226.21,63.92 -358.4,63.92 -136.98,0 -259.15,-21.17 -367.49,-63.92 -107.85,-42.76 -199.48,-102.03 -274.41,-178.23 -74.93,-75.77 -132.2,-166.37 -171.8,-271.35 -39.62,-105.41 -59.66,-220.56 -59.66,-346.29 0,-126.58 20.52,-242.57 61.56,-347.98 41.05,-105.41 99.27,-196.43 174.67,-272.63 75.41,-75.77 166.56,-135.04 273.94,-177.8 106.9,-42.75 227.17,-63.92 360.32,-63.92 136.02,0 257.71,21.17 365.09,63.92 107.86,42.76 199.02,102.03 273.94,177.8 74.93,76.2 132.2,167.22 171.81,272.63 39.61,105.41 59.66,221.4 59.66,347.98z"/>
  <path id="5" class="fil2" d="M11880.95 1779.66l0 685.8 -229.08 0 0 -1658.62 485.36 0c82.08,0 151.76,2.54 209.03,8.04 57.27,5.51 109.77,13.97 157.02,25.4 130.76,31.33 230.51,85.09 299.23,160.87 69.2,75.35 103.56,170.18 103.56,283.21 0,67.31 -11.93,127 -36.27,179.92 -24.34,52.91 -58.22,99.06 -102.13,138 -43.9,38.95 -96.4,70.7 -157.5,95.25 -61.08,24.98 -128.85,43.18 -203.3,54.61l0 5.08 553.61 708.24 -229.08 0 -575.56 -685.8 -274.89 0zm0 -789.94l0 607.06 225.25 0c69.69,0 129.34,-2.12 178.97,-6.35 49.16,-3.81 93.55,-11.43 132.68,-22.01 79.22,-21.59 140.31,-55.88 183.26,-102.87 42.95,-46.99 64.43,-108.8 64.43,-184.58 -0.96,-71.12 -21.48,-128.27 -61.57,-171.87 -40.08,-43.18 -95.45,-74.51 -166.55,-93.56 -33.42,-8.89 -73.5,-15.66 -120.27,-19.47 -46.3,-4.23 -105.47,-6.35 -177.53,-6.35l-258.67 0z"/>
 </g>
</svg>
