<?xml version="1.0" encoding="UTF-8"?>
<!DOCTYPE svg PUBLIC "-//W3C//DTD SVG 1.1//EN" "http://www.w3.org/Graphics/SVG/1.1/DTD/svg11.dtd">
<!-- Creator: CorelDRAW X7 -->
<svg xmlns="http://www.w3.org/2000/svg" xml:space="preserve" width="79mm" height="23mm" version="1.1" style="shape-rendering:geometricPrecision; text-rendering:geometricPrecision; image-rendering:optimizeQuality; fill-rule:evenodd; clip-rule:evenodd"
viewBox="0 0 7900 2300"
 xmlns:xlink="http://www.w3.org/1999/xlink">
 <defs>
  <style type="text/css">
   <![CDATA[
    .fil1 {fill:#2B2A29}
    .fil0 {fill:#EF7F1A}
    .fil2 {fill:#2B2A29;fill-rule:nonzero}
   ]]>
  </style>
 </defs>
 <g id="Слой_x0020_1">
  <metadata id="CorelCorpID_0Corel-Layer"/>
  <rect class="fil0" x="41" y="23" width="7819" height="2255" rx="217" ry="169"/>
  <g id="_116739312">
   <path class="fil1" d="M2729 1340l-248 -438 -124 149 0 289 -188 0 0 -963 188 0 0 419 339 -419 229 0 -319 383 342 580 -219 0 0 0zm909 -97c-68,67 -150,105 -260,105 -109,0 -193,-38 -261,-105 -97,-98 -95,-218 -95,-385 0,-166 -2,-287 95,-384 68,-67 152,-106 261,-106 110,0 192,39 260,106 97,97 96,218 96,384 0,167 1,287 -96,385l0 0zm-139 -655c-27,-32 -69,-52 -121,-52 -51,0 -95,20 -122,52 -36,40 -46,85 -46,270 0,186 10,230 46,271 27,31 71,51 122,51 52,0 94,-20 121,-51 36,-41 47,-85 47,-271 0,-185 -11,-230 -47,-270l0 0zm939 752l-188 -384 -136 0 0 384 -188 0 0 -963 378 0c196,0 312,134 312,295 0,135 -82,219 -176,253l215 415 -217 0 0 0zm-147 -796l-177 0 0 255 177 0c83,0 137,-53 137,-127 0,-75 -54,-128 -137,-128l0 0zm708 0l0 237 380 0 0 168 -380 0 0 391 -188 0 0 -963 634 0 0 167 -446 0 0 0zm1077 796l-57 -170 -342 0 -58 170 -197 0 351 -963 147 0 352 963 -196 0 0 0zm-225 -679l-122 350 240 0 -118 -350 0 0zm1142 587c-64,64 -154,92 -254,92l-348 0 0 -963 348 0c100,0 190,28 254,92 108,108 97,240 97,385 0,145 11,286 -97,394l0 0zm-131 -644c-33,-39 -76,-60 -141,-60l-142 0 0 628 142 0c65,0 108,-20 141,-59 35,-43 40,-113 40,-259 0,-146 -5,-207 -40,-250z"/>
   <path class="fil1" d="M457 286l1280 0c94,0 171,77 171,171l0 1280c0,95 -77,171 -171,171l-1280 0c-94,0 -172,-76 -172,-171l0 -1280c0,-94 78,-171 172,-171zm41 1434l275 0 0 -1246 -275 0 0 1246zm858 -1246l378 0 -496 623 496 623 -378 0 -496 -623 496 -623zm-406 186l0 123 -67 93 0 -402 291 0 -41 56 -183 0 0 73 130 0 -41 57 -89 0zm119 971c-9,23 -30,34 -55,34l-66 0 0 -211 8 0c60,0 108,52 117,103 5,30 4,54 -4,74l0 0zm67 -79c-14,-83 -81,-153 -172,-153l-81 0 0 321 148 0c48,0 80,-19 97,-58 13,-30 16,-66 8,-110z"/>
   <path class="fil1" d="M7313 362l0 110 -21 0 0 -92 -21 92 -22 0 -20 -92 0 92 -22 0 0 -110 34 0 19 87 20 -87 33 0 0 0zm-151 20l0 90 -23 0 0 -90 -33 0 0 -20 89 0 0 20 -33 0z"/>
   <path class="fil2" d="M3340 1771l0 -166c0,-26 10,-46 28,-61 8,-6 17,-11 27,-13 10,-2 24,-3 43,-3l117 0 0 243 28 0 0 53 -269 0 0 -53 26 0zm58 0l99 0 0 -189 -54 0c-16,0 -27,2 -34,7 -7,5 -11,13 -11,25l0 157z"/>
   <path id="_1" class="fil2" d="M3859 1528l123 0c20,0 34,1 44,3 10,2 18,7 26,13 19,14 28,35 28,61 0,27 -11,47 -32,62 27,11 41,34 41,67 0,29 -10,53 -31,70 -9,7 -19,12 -31,16 -11,3 -27,4 -47,4l-121 0 0 -296zm58 53l0 64 58 0c18,0 30,-2 36,-7 7,-4 10,-12 10,-25 0,-12 -4,-20 -10,-25 -7,-4 -18,-7 -35,-7l-59 0zm0 114l0 76 57 0c21,0 36,-3 44,-8 8,-6 12,-16 12,-31 0,-14 -4,-25 -11,-30 -8,-5 -23,-7 -45,-7l-57 0z"/>
   <polygon id="_2" class="fil2" points="4372,1528 4574,1528 4574,1581 4430,1581 4430,1644 4562,1644 4562,1695 4430,1695 4430,1771 4580,1771 4580,1824 4372,1824 "/>
   <path id="_3" class="fil2" d="M4876 1528l116 0c28,0 48,5 61,15 23,17 35,44 35,79 0,36 -11,62 -33,81 -9,5 -18,9 -27,12 -10,3 -23,4 -38,4l-56 0 0 105 -58 0 0 -296zm58 53l0 85 45 0c18,0 31,-4 38,-10 8,-6 11,-17 11,-31 0,-15 -3,-27 -11,-34 -7,-6 -20,-10 -38,-10l-45 0z"/>
   <polygon id="_4" class="fil2" points="5371,1528 5429,1528 5429,1824 5371,1824 "/>
   <g>
    <polygon class="fil2" points="7082,1463 2172,1463 2172,1425 7082,1425 "/>
   </g>
  </g>
 </g>
</svg>
