<?xml version="1.0" encoding="UTF-8"?>
<!DOCTYPE svg PUBLIC "-//W3C//DTD SVG 1.1//EN" "http://www.w3.org/Graphics/SVG/1.1/DTD/svg11.dtd">
<!-- Creator: CorelDRAW X7 -->
<svg xmlns="http://www.w3.org/2000/svg" xml:space="preserve" width="50mm" height="20mm" version="1.1" style="shape-rendering:geometricPrecision; text-rendering:geometricPrecision; image-rendering:optimizeQuality; fill-rule:evenodd; clip-rule:evenodd"
viewBox="0 0 5000 2000"
 xmlns:xlink="http://www.w3.org/1999/xlink">
 <defs>
  <style type="text/css">
   <![CDATA[
    .str1 {stroke:#2B2A29;stroke-width:75}
    .str0 {stroke:#2B2A29;stroke-width:75;stroke-linejoin:round}
    .str2 {stroke:#2B2A29;stroke-width:75;stroke-linecap:round;stroke-linejoin:round}
    .fil2 {fill:none}
    .fil0 {fill:#2B2A29}
    .fil1 {fill:#FEFEFE;fill-rule:nonzero}
   ]]>
  </style>
 </defs>
 <g id="Слой_x0020_1">
  <metadata id="CorelCorpID_0Corel-Layer"/>
  <g id="_1036325888">
   <g>
    <rect class="fil0" x="188" y="1473" width="4625" height="286"/>
    <path class="fil1" d="M405 1707l-20 0 0 -21 0 0c-9,16 -23,24 -42,24 -16,0 -28,-5 -38,-16 -9,-11 -14,-26 -14,-46 0,-20 6,-36 16,-49 10,-12 24,-18 41,-18 17,0 29,7 37,20l0 0 0 -76 20 0 0 182zm-20 -55l0 -19c0,-10 -3,-18 -9,-25 -7,-7 -15,-10 -25,-10 -13,0 -22,4 -29,13 -7,9 -10,21 -10,37 0,14 3,25 10,33 6,8 15,13 26,13 11,0 20,-4 27,-12 7,-8 10,-18 10,-30z"/>
    <path id="1" class="fil1" d="M663 1710c-18,0 -32,-6 -43,-17 -11,-12 -17,-27 -17,-46 0,-21 6,-37 17,-49 12,-11 27,-17 46,-17 19,0 33,6 43,17 11,11 16,27 16,47 0,20 -6,36 -17,47 -11,12 -26,18 -45,18zm2 -112c-13,0 -23,4 -30,13 -8,8 -11,20 -11,35 0,15 3,26 11,35 7,8 17,13 30,13 13,0 22,-5 29,-13 7,-8 11,-20 11,-35 0,-16 -4,-27 -11,-36 -7,-8 -16,-12 -29,-12z"/>
    <path id="2" class="fil1" d="M974 1710c-18,0 -32,-6 -43,-17 -11,-12 -17,-27 -17,-46 0,-21 6,-37 17,-49 12,-11 27,-17 46,-17 19,0 33,6 43,17 11,11 16,27 16,47 0,20 -6,36 -17,47 -11,12 -26,18 -45,18zm2 -112c-13,0 -23,4 -30,13 -8,8 -11,20 -11,35 0,15 3,26 11,35 7,8 17,13 30,13 13,0 23,-5 29,-13 7,-8 11,-20 11,-35 0,-16 -4,-27 -11,-36 -6,-8 -16,-12 -29,-12z"/>
    <path id="3" class="fil1" d="M1298 1604c-3,-3 -8,-4 -15,-4 -8,0 -15,4 -21,12 -5,8 -8,19 -8,32l0 63 -20 0 0 -123 20 0 0 25 0 0c3,-8 7,-15 13,-20 6,-5 12,-7 20,-7 5,0 9,0 11,1l0 21z"/>
    <path id="4" class="fil1" d="M1481 1703l0 -21c10,8 22,12 35,12 17,0 26,-6 26,-18 0,-3 -1,-6 -2,-8 -2,-2 -4,-4 -6,-6 -3,-2 -6,-4 -9,-5 -3,-1 -7,-3 -11,-4 -6,-3 -10,-5 -14,-7 -5,-2 -8,-5 -11,-7 -3,-3 -5,-6 -6,-10 -2,-3 -2,-8 -2,-12 0,-6 1,-11 4,-16 2,-4 6,-8 10,-11 5,-3 10,-5 16,-7 5,-1 11,-2 17,-2 11,0 20,2 29,5l0 21c-9,-6 -20,-9 -32,-9 -3,0 -7,0 -10,1 -3,1 -5,2 -7,3 -2,2 -4,4 -5,6 -1,2 -2,4 -2,7 0,3 1,6 2,8 1,2 3,4 5,6 2,2 5,3 8,4 3,2 7,3 11,5 6,2 10,4 15,6 4,3 8,5 11,8 3,3 5,6 7,9 2,4 2,8 2,13 0,6 -1,12 -4,16 -2,5 -6,8 -10,11 -5,3 -10,6 -16,7 -6,2 -12,2 -18,2 -13,0 -24,-2 -33,-7z"/>
    <path id="5" class="fil1" d="M2085 1710c-4,0 -8,-1 -12,-2 -3,-1 -7,-3 -10,-5 -2,-2 -5,-5 -8,-8 -3,-4 -6,-7 -9,-12 -3,4 -7,7 -11,10 -4,4 -9,6 -14,9 -5,2 -11,4 -17,6 -6,1 -13,2 -20,2 -9,0 -16,-1 -24,-3 -7,-2 -13,-6 -18,-10 -5,-4 -9,-9 -12,-15 -3,-7 -5,-14 -5,-22 0,-12 4,-23 11,-31 7,-9 17,-16 30,-22 -3,-1 -5,-3 -8,-6 -2,-2 -4,-5 -6,-8 -2,-3 -4,-6 -5,-10 -1,-4 -1,-8 -1,-12 0,-6 1,-12 3,-17 2,-5 5,-9 9,-12 4,-4 9,-6 15,-8 5,-2 11,-2 17,-2 7,0 12,0 18,2 5,2 9,4 13,8 4,3 7,7 9,11 2,5 3,10 3,15 0,10 -3,18 -8,24 -6,7 -14,12 -25,17 5,2 10,4 15,8 4,3 9,6 12,10 4,4 8,8 11,12 3,5 7,9 10,14 6,-9 11,-19 15,-30 3,-11 4,-22 4,-34 0,-3 0,-6 0,-9 0,-3 -1,-5 -2,-8l20 0c0,3 1,5 1,8 0,2 0,5 0,8 0,8 -1,15 -2,22 -2,8 -4,15 -6,22 -3,7 -6,13 -9,20 -4,6 -7,12 -11,17 3,4 5,7 8,10 2,3 4,5 7,7 2,2 5,3 7,4 3,1 5,2 9,2 2,0 5,-1 7,-1 3,-1 5,-2 8,-3l0 19c-3,1 -6,2 -9,2 -4,1 -7,1 -10,1zm-101 -17c6,0 12,-1 17,-2 5,-1 10,-3 14,-5 5,-3 9,-5 12,-8 4,-3 7,-6 10,-9 -5,-8 -10,-14 -14,-20 -4,-5 -8,-10 -12,-14 -5,-4 -9,-7 -14,-10 -5,-3 -10,-5 -16,-8 -6,2 -10,4 -14,7 -5,2 -8,5 -11,9 -4,3 -6,7 -8,11 -2,5 -2,10 -2,16 0,5 1,10 3,14 2,4 4,8 8,11 3,2 7,4 12,6 5,1 10,2 15,2zm30 -123c0,-4 0,-8 -2,-10 -1,-3 -3,-6 -6,-7 -2,-2 -4,-4 -7,-4 -3,-1 -6,-2 -9,-2 -7,0 -14,2 -18,7 -5,4 -8,10 -8,17 0,3 1,6 2,9 1,3 2,6 4,8 2,3 4,5 6,7 3,2 5,4 8,5 10,-4 18,-8 23,-12 5,-5 7,-11 7,-18z"/>
    <path id="6" class="fil1" d="M2528 1542c-4,-2 -8,-3 -13,-3 -14,0 -21,8 -21,26l0 19 29 0 0 17 -29 0 0 106 -20 0 0 -106 -21 0 0 -17 21 0 0 -20c0,-13 4,-23 12,-31 7,-7 17,-11 28,-11 6,0 11,1 14,2l0 18z"/>
    <path id="7" class="fil1" d="M2811 1707l-20 0 0 -19 -1 0c-8,15 -21,22 -38,22 -29,0 -44,-17 -44,-52l0 -74 20 0 0 71c0,26 10,39 30,39 9,0 17,-4 23,-11 7,-7 10,-17 10,-28l0 -71 20 0 0 123z"/>
    <path id="8" class="fil1" d="M3081 1604c-3,-3 -8,-4 -15,-4 -8,0 -15,4 -21,12 -5,8 -8,19 -8,32l0 63 -20 0 0 -123 20 0 0 25 0 0c3,-8 7,-15 13,-20 6,-5 12,-7 20,-7 5,0 9,0 11,1l0 21z"/>
    <path id="9" class="fil1" d="M3371 1707l-20 0 0 -70c0,-26 -9,-39 -28,-39 -10,0 -18,3 -25,11 -6,7 -9,17 -9,28l0 70 -20 0 0 -123 20 0 0 20 0 0c9,-15 23,-23 41,-23 13,0 23,4 31,13 7,9 10,21 10,38l0 75z"/>
    <path id="10" class="fil1" d="M3584 1552c-4,0 -7,-1 -9,-3 -3,-3 -4,-6 -4,-9 0,-4 1,-7 4,-9 2,-3 5,-4 9,-4 3,0 6,1 9,4 3,2 4,5 4,9 0,3 -1,6 -4,9 -3,2 -6,3 -9,3zm9 121c0,11 5,17 14,17 3,0 6,-1 9,-1l0 17c-1,1 -3,1 -6,1 -3,1 -5,1 -8,1 -4,0 -8,-1 -11,-2 -4,-1 -7,-3 -9,-6 -3,-2 -5,-6 -6,-10 -2,-4 -2,-8 -2,-14l0 -92 19 0 0 89z"/>
    <path id="11" class="fil1" d="M3861 1706c-4,3 -11,4 -18,4 -22,0 -33,-12 -33,-36l0 -73 -21 0 0 -17 21 0 0 -30 20 -7 0 37 31 0 0 17 -31 0 0 69c0,9 2,14 4,18 3,4 8,5 14,5 5,0 10,-1 13,-4l0 17z"/>
    <path id="12" class="fil1" d="M4154 1707l-20 0 0 -19 0 0c-8,15 -21,22 -38,22 -30,0 -45,-17 -45,-52l0 -74 20 0 0 71c0,26 10,39 30,39 10,0 18,-4 24,-11 6,-7 9,-17 9,-28l0 -71 20 0 0 123z"/>
    <path id="13" class="fil1" d="M4425 1604c-4,-3 -9,-4 -15,-4 -9,0 -16,4 -21,12 -6,8 -9,19 -9,32l0 63 -20 0 0 -123 20 0 0 25 1 0c2,-8 7,-15 12,-20 6,-5 13,-7 20,-7 5,0 9,0 12,1l0 21z"/>
    <path id="14" class="fil1" d="M4709 1651l-88 0c1,13 4,24 12,31 7,8 16,12 29,12 14,0 26,-5 38,-14l0 18c-11,8 -25,12 -43,12 -17,0 -31,-5 -41,-17 -10,-11 -15,-27 -15,-47 0,-19 5,-35 16,-47 11,-12 25,-18 41,-18 16,0 28,5 37,16 9,10 14,25 14,43l0 11zm-21 -17c0,-12 -3,-21 -8,-27 -5,-6 -13,-9 -23,-9 -9,0 -17,3 -23,10 -7,6 -11,15 -12,26l66 0z"/>
   </g>
   <g>
    <polyline class="fil2 str0" points="644,241 252,241 252,1109 604,1109 604,1252 207,1252 "/>
    <path class="fil2 str0" d="M700 241l410 0 0 413m0 77l0 378 -371 0 0 143 408 0"/>
    <polyline class="fil2 str0" points="1300,1289 1300,241 1713,1027 2136,241 2136,1284 "/>
    <polyline class="fil2 str0" points="2999,241 2321,241 2321,1252 2999,1252 "/>
    <line class="fil2 str1" x1="2321" y1="744" x2="2956" y2= "744" />
    <polyline class="fil2 str0" points="3827,508 3827,241 3131,241 3131,1252 3827,1252 3827,744 3703,744 "/>
    <polyline class="fil2 str2" points="3941,1252 4359,244 4793,1259 "/>
    <line class="fil2 str1" x1="4032" y1="1036" x2="4702" y2= "1035" />
   </g>
  </g>
 </g>
</svg>
